solid CATIA STL
  facet normal -9.987523e-001 -4.993746e-002  -0.000000e+000
    outer loop
      vertex  4.550150e+001  1.748257e+001  0.000000e+000
      vertex  4.550150e+001  1.748257e+001  4.350125e+001
      vertex  4.500063e+001  2.750000e+001  0.000000e+000
    endloop
  endfacet
  facet normal -9.987523e-001 -4.993746e-002  0.000000e+000
    outer loop
      vertex  4.500063e+001  2.750000e+001  0.000000e+000
      vertex  4.550150e+001  1.748257e+001  4.350125e+001
      vertex  4.500063e+001  2.750000e+001  4.350125e+001
    endloop
  endfacet
  facet normal  0.000000e+000  1.000000e+000  0.000000e+000
    outer loop
      vertex  4.500063e+001  2.750000e+001  0.000000e+000
      vertex  4.500063e+001  2.750000e+001  4.350125e+001
      vertex  4.650150e+001  2.750000e+001  7.105427e-015
    endloop
  endfacet
  facet normal  0.000000e+000  1.000000e+000  0.000000e+000
    outer loop
      vertex  4.650150e+001  2.750000e+001  7.105427e-015
      vertex  4.500063e+001  2.750000e+001  4.350125e+001
      vertex  4.500063e+001  2.750000e+001  4.500063e+001
    endloop
  endfacet
  facet normal  -0.000000e+000  1.000000e+000  0.000000e+000
    outer loop
      vertex  4.650150e+001  2.750000e+001  7.105427e-015
      vertex  4.500063e+001  2.750000e+001  4.500063e+001
      vertex  4.650150e+001  2.750000e+001  4.650150e+001
    endloop
  endfacet
  facet normal -9.928768e-001  1.191451e-001  0.000000e+000
    outer loop
      vertex  4.394359e+001  4.500000e+000  0.000000e+000
      vertex  4.394359e+001  4.500000e+000  4.350125e+001
      vertex  4.550150e+001  1.748257e+001  0.000000e+000
    endloop
  endfacet
  facet normal -9.928768e-001  1.191451e-001  0.000000e+000
    outer loop
      vertex  4.550150e+001  1.748257e+001  0.000000e+000
      vertex  4.394359e+001  4.500000e+000  4.350125e+001
      vertex  4.550150e+001  1.748257e+001  4.350125e+001
    endloop
  endfacet
  facet normal  1.000000e+000  0.000000e+000  0.000000e+000
    outer loop
      vertex  4.650150e+001  0.000000e+000  4.650150e+001
      vertex  4.650150e+001  0.000000e+000 -4.258126e-015
      vertex  4.650150e+001  2.750000e+001  4.650150e+001
    endloop
  endfacet
  facet normal  1.000000e+000  0.000000e+000  0.000000e+000
    outer loop
      vertex  4.650150e+001  2.750000e+001  4.650150e+001
      vertex  4.650150e+001  0.000000e+000 -4.258126e-015
      vertex  4.650150e+001  2.750000e+001  7.105427e-015
    endloop
  endfacet
  facet normal  0.000000e+000  1.000000e+000  -0.000000e+000
    outer loop
      vertex  4.394359e+001  4.500000e+000  4.350125e+001
      vertex  4.394359e+001  4.500000e+000  0.000000e+000
      vertex  4.350125e+001  4.500000e+000  4.350125e+001
    endloop
  endfacet
  facet normal  0.000000e+000  1.000000e+000  0.000000e+000
    outer loop
      vertex  4.350125e+001  4.500000e+000  4.350125e+001
      vertex  4.394359e+001  4.500000e+000  0.000000e+000
      vertex  4.200000e+001  4.500000e+000  1.226058e-016
    endloop
  endfacet
  facet normal  0.000000e+000  1.000000e+000  0.000000e+000
    outer loop
      vertex  4.350125e+001  4.500000e+000  4.350125e+001
      vertex  4.200000e+001  4.500000e+000  1.226058e-016
      vertex  4.200000e+001  4.500000e+000  4.200000e+001
    endloop
  endfacet
  facet normal  0.000000e+000  1.000000e+000  -0.000000e+000
    outer loop
      vertex -4.500063e+001  2.750000e+001  4.500063e+001
      vertex -4.500063e+001  2.750000e+001  4.350125e+001
      vertex -4.650150e+001  2.750000e+001  4.650150e+001
    endloop
  endfacet
  facet normal  0.000000e+000  1.000000e+000  0.000000e+000
    outer loop
      vertex -4.650150e+001  2.750000e+001  4.650150e+001
      vertex -4.500063e+001  2.750000e+001  4.350125e+001
      vertex -4.500063e+001  2.750000e+001 -7.105427e-015
    endloop
  endfacet
  facet normal  0.000000e+000  1.000000e+000  0.000000e+000
    outer loop
      vertex -4.650150e+001  2.750000e+001  4.650150e+001
      vertex -4.500063e+001  2.750000e+001 -7.105427e-015
      vertex -4.650150e+001  2.750000e+001  7.105427e-015
    endloop
  endfacet
  facet normal -3.946148e-016 -1.000000e+000  4.083462e-017
    outer loop
      vertex  4.200000e+001  1.776357e-015  0.000000e+000
      vertex  4.650150e+001  0.000000e+000 -4.258126e-015
      vertex  4.200000e+001  3.491411e-015  4.200000e+001
    endloop
  endfacet
  facet normal -7.756113e-016 -9.999999e-001  0.000000e+000
    outer loop
      vertex  4.200000e+001  3.491411e-015  4.200000e+001
      vertex  4.650150e+001  0.000000e+000 -4.258126e-015
      vertex  4.650150e+001  0.000000e+000  4.650150e+001
    endloop
  endfacet
  facet normal -9.999999e-001  0.000000e+000  -0.000000e+000
    outer loop
      vertex  4.200000e+001  1.776357e-015  0.000000e+000
      vertex  4.200000e+001  3.491411e-015  4.200000e+001
      vertex  4.200000e+001  4.500000e+000  1.226058e-016
    endloop
  endfacet
  facet normal -9.999999e-001  0.000000e+000  0.000000e+000
    outer loop
      vertex  4.200000e+001  4.500000e+000  1.226058e-016
      vertex  4.200000e+001  3.491411e-015  4.200000e+001
      vertex  4.200000e+001  4.500000e+000  4.200000e+001
    endloop
  endfacet
  facet normal  9.987523e-001 -4.993746e-002  0.000000e+000
    outer loop
      vertex -4.550150e+001  1.748257e+001  4.350125e+001
      vertex -4.550150e+001  1.748257e+001  0.000000e+000
      vertex -4.500063e+001  2.750000e+001  4.350125e+001
    endloop
  endfacet
  facet normal  9.987523e-001 -4.993746e-002  0.000000e+000
    outer loop
      vertex -4.500063e+001  2.750000e+001  4.350125e+001
      vertex -4.550150e+001  1.748257e+001  0.000000e+000
      vertex -4.500063e+001  2.750000e+001 -7.105427e-015
    endloop
  endfacet
  facet normal -1.000000e+000  0.000000e+000  0.000000e+000
    outer loop
      vertex -4.650150e+001  0.000000e+000 -1.436477e-015
      vertex -4.650150e+001  0.000000e+000  4.650150e+001
      vertex -4.650150e+001  2.750000e+001  7.105427e-015
    endloop
  endfacet
  facet normal -1.000000e+000  0.000000e+000  0.000000e+000
    outer loop
      vertex -4.650150e+001  2.750000e+001  7.105427e-015
      vertex -4.650150e+001  0.000000e+000  4.650150e+001
      vertex -4.650150e+001  2.750000e+001  4.650150e+001
    endloop
  endfacet
  facet normal  0.000000e+000  1.000000e+000  0.000000e+000
    outer loop
      vertex -4.394359e+001  4.500000e+000 -7.105427e-015
      vertex -4.394359e+001  4.500000e+000  4.350125e+001
      vertex -4.200000e+001  4.500000e+000  6.982821e-015
    endloop
  endfacet
  facet normal  0.000000e+000  1.000000e+000  0.000000e+000
    outer loop
      vertex -4.200000e+001  4.500000e+000  6.982821e-015
      vertex -4.394359e+001  4.500000e+000  4.350125e+001
      vertex -4.350125e+001  4.500000e+000  4.350125e+001
    endloop
  endfacet
  facet normal  0.000000e+000  1.000000e+000  0.000000e+000
    outer loop
      vertex -4.200000e+001  4.500000e+000  6.982821e-015
      vertex -4.350125e+001  4.500000e+000  4.350125e+001
      vertex -4.200000e+001  4.500000e+000  4.200000e+001
    endloop
  endfacet
  facet normal  9.928768e-001  1.191451e-001  -0.000000e+000
    outer loop
      vertex -4.394359e+001  4.500000e+000  4.350125e+001
      vertex -4.394359e+001  4.500000e+000 -7.105427e-015
      vertex -4.550150e+001  1.748257e+001  4.350125e+001
    endloop
  endfacet
  facet normal  9.928768e-001  1.191451e-001  0.000000e+000
    outer loop
      vertex -4.550150e+001  1.748257e+001  4.350125e+001
      vertex -4.394359e+001  4.500000e+000 -7.105427e-015
      vertex -4.550150e+001  1.748257e+001  0.000000e+000
    endloop
  endfacet
  facet normal  3.946148e-016 -9.999999e-001  0.000000e+000
    outer loop
      vertex -4.650150e+001  0.000000e+000 -1.436477e-015
      vertex -4.200000e+001  1.776357e-015  7.105427e-015
      vertex -4.650150e+001  0.000000e+000  4.650150e+001
    endloop
  endfacet
  facet normal -2.721628e-017 -1.000000e+000 -4.083462e-017
    outer loop
      vertex -4.650150e+001  0.000000e+000  4.650150e+001
      vertex -4.200000e+001  1.776357e-015  7.105427e-015
      vertex -4.200000e+001  6.130288e-017  4.200000e+001
    endloop
  endfacet
  facet normal  9.999999e-001  0.000000e+000  -0.000000e+000
    outer loop
      vertex -4.200000e+001  6.130288e-017  4.200000e+001
      vertex -4.200000e+001  1.776357e-015  7.105427e-015
      vertex -4.200000e+001  4.500000e+000  4.200000e+001
    endloop
  endfacet
  facet normal  9.999999e-001  0.000000e+000  0.000000e+000
    outer loop
      vertex -4.200000e+001  4.500000e+000  4.200000e+001
      vertex -4.200000e+001  1.776357e-015  7.105427e-015
      vertex -4.200000e+001  4.500000e+000  6.982821e-015
    endloop
  endfacet
  facet normal -9.468413e-015  3.106147e-016 -1.000000e+000
    outer loop
      vertex -4.650150e+001  0.000000e+000 -1.436477e-015
      vertex -4.650150e+001  2.750000e+001  7.105427e-015
      vertex -4.500063e+001  2.750000e+001 -7.105427e-015
    endloop
  endfacet
  facet normal  1.099271e-013 -6.205642e-015 -1.000000e+000
    outer loop
      vertex -4.650150e+001  0.000000e+000 -1.436477e-015
      vertex -4.500063e+001  2.750000e+001 -7.105427e-015
      vertex -4.550150e+001  1.748257e+001  0.000000e+000
    endloop
  endfacet
  facet normal -2.624942e-015  2.323124e-016 -1.000000e+000
    outer loop
      vertex -4.650150e+001  0.000000e+000 -1.436477e-015
      vertex -4.550150e+001  1.748257e+001  0.000000e+000
      vertex -4.394359e+001  4.500000e+000 -7.105427e-015
    endloop
  endfacet
  facet normal  7.248577e-015 -5.380030e-015 -1.000000e+000
    outer loop
      vertex -4.650150e+001  0.000000e+000 -1.436477e-015
      vertex -4.394359e+001  4.500000e+000 -7.105427e-015
      vertex -4.200000e+001  4.500000e+000  6.982821e-015
    endloop
  endfacet
  facet normal  1.897570e-015 -2.724575e-017 -1.000000e+000
    outer loop
      vertex -4.650150e+001  0.000000e+000 -1.436477e-015
      vertex -4.200000e+001  4.500000e+000  6.982821e-015
      vertex -4.200000e+001  1.776357e-015  7.105427e-015
    endloop
  endfacet
  facet normal  4.734207e-015  2.367096e-016 -1.000000e+000
    outer loop
      vertex  4.550150e+001  1.748257e+001  0.000000e+000
      vertex  4.500063e+001  2.750000e+001  0.000000e+000
      vertex  4.650150e+001  2.750000e+001  7.105427e-015
    endloop
  endfacet
  facet normal -9.459359e-016  2.724572e-017 -1.000000e+000
    outer loop
      vertex  4.650150e+001  0.000000e+000 -4.258126e-015
      vertex  4.200000e+001  1.776357e-015  0.000000e+000
      vertex  4.200000e+001  4.500000e+000  1.226058e-016
    endloop
  endfacet
  facet normal -6.308217e-017  9.103928e-016 -1.000000e+000
    outer loop
      vertex  4.650150e+001  0.000000e+000 -4.258126e-015
      vertex  4.200000e+001  4.500000e+000  1.226058e-016
      vertex  4.394359e+001  4.500000e+000  0.000000e+000
    endloop
  endfacet
  facet normal -1.374517e-015  1.649419e-016 -1.000000e+000
    outer loop
      vertex  4.650150e+001  0.000000e+000 -4.258126e-015
      vertex  4.394359e+001  4.500000e+000  0.000000e+000
      vertex  4.550150e+001  1.748257e+001  0.000000e+000
    endloop
  endfacet
  facet normal  2.966025e-015  4.132201e-016 -9.999999e-001
    outer loop
      vertex  4.650150e+001  0.000000e+000 -4.258126e-015
      vertex  4.550150e+001  1.748257e+001  0.000000e+000
      vertex  4.650150e+001  2.750000e+001  7.105427e-015
    endloop
  endfacet
  facet normal  4.083462e-017 -1.000000e+000  2.721627e-017
    outer loop
      vertex -4.200000e+001  6.130288e-017  4.200000e+001
      vertex  4.200000e+001  3.491411e-015  4.200000e+001
      vertex -4.650150e+001  0.000000e+000  4.650150e+001
    endloop
  endfacet
  facet normal  0.000000e+000 -9.999999e-001 -7.756113e-016
    outer loop
      vertex -4.650150e+001  0.000000e+000  4.650150e+001
      vertex  4.200000e+001  3.491411e-015  4.200000e+001
      vertex  4.650150e+001  0.000000e+000  4.650150e+001
    endloop
  endfacet
  facet normal  0.000000e+000  1.000000e+000  0.000000e+000
    outer loop
      vertex -4.650150e+001  2.750000e+001  4.650150e+001
      vertex  4.650150e+001  2.750000e+001  4.650150e+001
      vertex  4.500063e+001  2.750000e+001  4.500063e+001
    endloop
  endfacet
  facet normal  0.000000e+000  1.000000e+000  0.000000e+000
    outer loop
      vertex -4.650150e+001  2.750000e+001  4.650150e+001
      vertex  4.500063e+001  2.750000e+001  4.500063e+001
      vertex  4.350125e+001  2.750000e+001  4.500063e+001
    endloop
  endfacet
  facet normal  0.000000e+000  1.000000e+000  0.000000e+000
    outer loop
      vertex -4.650150e+001  2.750000e+001  4.650150e+001
      vertex  4.350125e+001  2.750000e+001  4.500063e+001
      vertex -4.350125e+001  2.750000e+001  4.500063e+001
    endloop
  endfacet
  facet normal  0.000000e+000  1.000000e+000  0.000000e+000
    outer loop
      vertex -4.650150e+001  2.750000e+001  4.650150e+001
      vertex -4.350125e+001  2.750000e+001  4.500063e+001
      vertex -4.500063e+001  2.750000e+001  4.500063e+001
    endloop
  endfacet
  facet normal -9.987524e-001 -4.993746e-002  0.000000e+000
    outer loop
      vertex  4.500063e+001  2.750000e+001  4.500063e+001
      vertex  4.500063e+001  2.750000e+001  4.350125e+001
      vertex  4.550150e+001  1.748257e+001  4.550150e+001
    endloop
  endfacet
  facet normal -9.987524e-001 -4.993746e-002  -0.000000e+000
    outer loop
      vertex  4.550150e+001  1.748257e+001  4.550150e+001
      vertex  4.500063e+001  2.750000e+001  4.350125e+001
      vertex  4.550150e+001  1.748257e+001  4.350125e+001
    endloop
  endfacet
  facet normal  0.000000e+000  0.000000e+000 -9.999999e-001
    outer loop
      vertex  4.200000e+001  3.491411e-015  4.200000e+001
      vertex -4.200000e+001  6.130288e-017  4.200000e+001
      vertex  4.200000e+001  4.500000e+000  4.200000e+001
    endloop
  endfacet
  facet normal  -0.000000e+000  0.000000e+000 -9.999999e-001
    outer loop
      vertex  4.200000e+001  4.500000e+000  4.200000e+001
      vertex -4.200000e+001  6.130288e-017  4.200000e+001
      vertex -4.200000e+001  4.500000e+000  4.200000e+001
    endloop
  endfacet
  facet normal  0.000000e+000 -4.993746e-002 -9.987524e-001
    outer loop
      vertex  4.550150e+001  1.748257e+001  4.550150e+001
      vertex  4.350125e+001  1.748257e+001  4.550150e+001
      vertex  4.500063e+001  2.750000e+001  4.500063e+001
    endloop
  endfacet
  facet normal  -0.000000e+000 -4.993746e-002 -9.987524e-001
    outer loop
      vertex  4.500063e+001  2.750000e+001  4.500063e+001
      vertex  4.350125e+001  1.748257e+001  4.550150e+001
      vertex  4.350125e+001  2.750000e+001  4.500063e+001
    endloop
  endfacet
  facet normal  0.000000e+000 -4.993746e-002 -9.987523e-001
    outer loop
      vertex  4.350125e+001  1.748257e+001  4.550150e+001
      vertex -4.350125e+001  1.748257e+001  4.550150e+001
      vertex  4.350125e+001  2.750000e+001  4.500063e+001
    endloop
  endfacet
  facet normal  -0.000000e+000 -4.993746e-002 -9.987523e-001
    outer loop
      vertex  4.350125e+001  2.750000e+001  4.500063e+001
      vertex -4.350125e+001  1.748257e+001  4.550150e+001
      vertex -4.350125e+001  2.750000e+001  4.500063e+001
    endloop
  endfacet
  facet normal  -0.000000e+000 -4.993746e-002 -9.987524e-001
    outer loop
      vertex -4.500063e+001  2.750000e+001  4.500063e+001
      vertex -4.350125e+001  2.750000e+001  4.500063e+001
      vertex -4.550150e+001  1.748257e+001  4.550150e+001
    endloop
  endfacet
  facet normal  0.000000e+000 -4.993746e-002 -9.987524e-001
    outer loop
      vertex -4.550150e+001  1.748257e+001  4.550150e+001
      vertex -4.350125e+001  2.750000e+001  4.500063e+001
      vertex -4.350125e+001  1.748257e+001  4.550150e+001
    endloop
  endfacet
  facet normal  9.987524e-001 -4.993746e-002  0.000000e+000
    outer loop
      vertex -4.550150e+001  1.748257e+001  4.550150e+001
      vertex -4.550150e+001  1.748257e+001  4.350125e+001
      vertex -4.500063e+001  2.750000e+001  4.500063e+001
    endloop
  endfacet
  facet normal  9.987524e-001 -4.993746e-002  0.000000e+000
    outer loop
      vertex -4.500063e+001  2.750000e+001  4.500063e+001
      vertex -4.550150e+001  1.748257e+001  4.350125e+001
      vertex -4.500063e+001  2.750000e+001  4.350125e+001
    endloop
  endfacet
  facet normal  0.000000e+000  0.000000e+000  1.000000e+000
    outer loop
      vertex -4.650150e+001  0.000000e+000  4.650150e+001
      vertex  4.650150e+001  0.000000e+000  4.650150e+001
      vertex -4.650150e+001  2.750000e+001  4.650150e+001
    endloop
  endfacet
  facet normal  -0.000000e+000  0.000000e+000  1.000000e+000
    outer loop
      vertex -4.650150e+001  2.750000e+001  4.650150e+001
      vertex  4.650150e+001  0.000000e+000  4.650150e+001
      vertex  4.650150e+001  2.750000e+001  4.650150e+001
    endloop
  endfacet
  facet normal  0.000000e+000  1.191451e-001 -9.928769e-001
    outer loop
      vertex -4.350125e+001  1.748257e+001  4.550150e+001
      vertex -4.350125e+001  4.500000e+000  4.394359e+001
      vertex -4.550150e+001  1.748257e+001  4.550150e+001
    endloop
  endfacet
  facet normal  0.000000e+000  1.191451e-001 -9.928769e-001
    outer loop
      vertex -4.550150e+001  1.748257e+001  4.550150e+001
      vertex -4.350125e+001  4.500000e+000  4.394359e+001
      vertex -4.394359e+001  4.500000e+000  4.394359e+001
    endloop
  endfacet
  facet normal  0.000000e+000  1.191451e-001 -9.928769e-001
    outer loop
      vertex  4.394359e+001  4.500000e+000  4.394359e+001
      vertex  4.350125e+001  4.500000e+000  4.394359e+001
      vertex  4.550150e+001  1.748257e+001  4.550150e+001
    endloop
  endfacet
  facet normal  0.000000e+000  1.191451e-001 -9.928769e-001
    outer loop
      vertex  4.550150e+001  1.748257e+001  4.550150e+001
      vertex  4.350125e+001  4.500000e+000  4.394359e+001
      vertex  4.350125e+001  1.748257e+001  4.550150e+001
    endloop
  endfacet
  facet normal  0.000000e+000  9.999999e-001  0.000000e+000
    outer loop
      vertex -4.394359e+001  4.500000e+000  4.394359e+001
      vertex -4.350125e+001  4.500000e+000  4.394359e+001
      vertex -4.350125e+001  4.500000e+000  4.350125e+001
    endloop
  endfacet
  facet normal  -0.000000e+000  9.999999e-001  0.000000e+000
    outer loop
      vertex  4.350125e+001  4.500000e+000  4.350125e+001
      vertex  4.350125e+001  4.500000e+000  4.394359e+001
      vertex  4.394359e+001  4.500000e+000  4.394359e+001
    endloop
  endfacet
  facet normal  0.000000e+000  1.000000e+000  0.000000e+000
    outer loop
      vertex  4.200000e+001  4.500000e+000  4.200000e+001
      vertex  4.350125e+001  4.500000e+000  4.394359e+001
      vertex  4.350125e+001  4.500000e+000  4.350125e+001
    endloop
  endfacet
  facet normal  0.000000e+000  1.000000e+000  -0.000000e+000
    outer loop
      vertex  4.350125e+001  4.500000e+000  4.394359e+001
      vertex  4.200000e+001  4.500000e+000  4.200000e+001
      vertex -4.350125e+001  4.500000e+000  4.394359e+001
    endloop
  endfacet
  facet normal  0.000000e+000  1.000000e+000  0.000000e+000
    outer loop
      vertex -4.350125e+001  4.500000e+000  4.394359e+001
      vertex  4.200000e+001  4.500000e+000  4.200000e+001
      vertex -4.200000e+001  4.500000e+000  4.200000e+001
    endloop
  endfacet
  facet normal  0.000000e+000  1.000000e+000  0.000000e+000
    outer loop
      vertex -4.350125e+001  4.500000e+000  4.394359e+001
      vertex -4.200000e+001  4.500000e+000  4.200000e+001
      vertex -4.350125e+001  4.500000e+000  4.350125e+001
    endloop
  endfacet
  facet normal  9.928769e-001  1.191451e-001  -0.000000e+000
    outer loop
      vertex -4.394359e+001  4.500000e+000  4.394359e+001
      vertex -4.394359e+001  4.500000e+000  4.350125e+001
      vertex -4.550150e+001  1.748257e+001  4.550150e+001
    endloop
  endfacet
  facet normal  9.928769e-001  1.191451e-001  0.000000e+000
    outer loop
      vertex -4.550150e+001  1.748257e+001  4.550150e+001
      vertex -4.394359e+001  4.500000e+000  4.350125e+001
      vertex -4.550150e+001  1.748257e+001  4.350125e+001
    endloop
  endfacet
  facet normal  0.000000e+000  9.999999e-001  0.000000e+000
    outer loop
      vertex -4.350125e+001  4.500000e+000  4.350125e+001
      vertex -4.394359e+001  4.500000e+000  4.350125e+001
      vertex -4.394359e+001  4.500000e+000  4.394359e+001
    endloop
  endfacet
  facet normal -9.928769e-001  1.191451e-001  0.000000e+000
    outer loop
      vertex  4.550150e+001  1.748257e+001  4.350125e+001
      vertex  4.394359e+001  4.500000e+000  4.350125e+001
      vertex  4.550150e+001  1.748257e+001  4.550150e+001
    endloop
  endfacet
  facet normal -9.928769e-001  1.191451e-001  0.000000e+000
    outer loop
      vertex  4.550150e+001  1.748257e+001  4.550150e+001
      vertex  4.394359e+001  4.500000e+000  4.350125e+001
      vertex  4.394359e+001  4.500000e+000  4.394359e+001
    endloop
  endfacet
  facet normal  0.000000e+000  9.999999e-001  -0.000000e+000
    outer loop
      vertex  4.394359e+001  4.500000e+000  4.394359e+001
      vertex  4.394359e+001  4.500000e+000  4.350125e+001
      vertex  4.350125e+001  4.500000e+000  4.350125e+001
    endloop
  endfacet
  facet normal  0.000000e+000  1.191451e-001 -9.928768e-001
    outer loop
      vertex  4.350125e+001  4.500000e+000  4.394359e+001
      vertex -4.350125e+001  4.500000e+000  4.394359e+001
      vertex  4.350125e+001  1.748257e+001  4.550150e+001
    endloop
  endfacet
  facet normal  0.000000e+000  1.191451e-001 -9.928768e-001
    outer loop
      vertex  4.350125e+001  1.748257e+001  4.550150e+001
      vertex -4.350125e+001  4.500000e+000  4.394359e+001
      vertex -4.350125e+001  1.748257e+001  4.550150e+001
    endloop
  endfacet
endsolid CATIA STL
