solid CATIA STL
  facet normal -9.986178e-001 -5.255892e-002  -0.000000e+000
    outer loop
      vertex  4.550127e+001  1.748900e+001 -7.105427e-015
      vertex  4.550127e+001  1.748900e+001  4.350138e+001
      vertex  4.500069e+001  2.700000e+001 -7.105427e-015
    endloop
  endfacet
  facet normal -9.986178e-001 -5.255892e-002  0.000000e+000
    outer loop
      vertex  4.500069e+001  2.700000e+001 -7.105427e-015
      vertex  4.550127e+001  1.748900e+001  4.350138e+001
      vertex  4.500069e+001  2.700000e+001  4.350138e+001
    endloop
  endfacet
  facet normal  0.000000e+000  1.000000e+000  0.000000e+000
    outer loop
      vertex  4.500069e+001  2.700000e+001 -7.105427e-015
      vertex  4.500069e+001  2.700000e+001  4.350138e+001
      vertex  4.650127e+001  2.700000e+001  0.000000e+000
    endloop
  endfacet
  facet normal  0.000000e+000  1.000000e+000  0.000000e+000
    outer loop
      vertex  4.650127e+001  2.700000e+001  0.000000e+000
      vertex  4.500069e+001  2.700000e+001  4.350138e+001
      vertex  4.500069e+001  2.700000e+001  4.500069e+001
    endloop
  endfacet
  facet normal  -0.000000e+000  1.000000e+000  0.000000e+000
    outer loop
      vertex  4.650127e+001  2.700000e+001  0.000000e+000
      vertex  4.500069e+001  2.700000e+001  4.500069e+001
      vertex  4.650127e+001  2.700000e+001  4.650127e+001
    endloop
  endfacet
  facet normal -9.953500e-001  9.632413e-002  0.000000e+000
    outer loop
      vertex  4.395395e+001  1.500000e+000 -7.105427e-015
      vertex  4.395395e+001  1.500000e+000  4.350138e+001
      vertex  4.550127e+001  1.748900e+001 -7.105427e-015
    endloop
  endfacet
  facet normal -9.953500e-001  9.632413e-002  0.000000e+000
    outer loop
      vertex  4.550127e+001  1.748900e+001 -7.105427e-015
      vertex  4.395395e+001  1.500000e+000  4.350138e+001
      vertex  4.550127e+001  1.748900e+001  4.350138e+001
    endloop
  endfacet
  facet normal  1.000000e+000  0.000000e+000  0.000000e+000
    outer loop
      vertex  4.650127e+001  0.000000e+000  4.650127e+001
      vertex  4.650127e+001  0.000000e+000  6.400001e-015
      vertex  4.650127e+001  2.700000e+001  4.650127e+001
    endloop
  endfacet
  facet normal  1.000000e+000  0.000000e+000  0.000000e+000
    outer loop
      vertex  4.650127e+001  2.700000e+001  4.650127e+001
      vertex  4.650127e+001  0.000000e+000  6.400001e-015
      vertex  4.650127e+001  2.700000e+001  0.000000e+000
    endloop
  endfacet
  facet normal  0.000000e+000  9.999999e-001  -0.000000e+000
    outer loop
      vertex  4.395395e+001  1.500000e+000  4.350138e+001
      vertex  4.395395e+001  1.500000e+000 -7.105427e-015
      vertex  4.350138e+001  1.500000e+000  4.350138e+001
    endloop
  endfacet
  facet normal  0.000000e+000  1.000000e+000  0.000000e+000
    outer loop
      vertex  4.350138e+001  1.500000e+000  4.350138e+001
      vertex  4.395395e+001  1.500000e+000 -7.105427e-015
      vertex  4.200000e+001  1.500000e+000  7.105427e-015
    endloop
  endfacet
  facet normal  0.000000e+000  9.999999e-001  0.000000e+000
    outer loop
      vertex  4.350138e+001  1.500000e+000  4.350138e+001
      vertex  4.200000e+001  1.500000e+000  7.105427e-015
      vertex  4.200000e+001  1.500000e+000  4.200000e+001
    endloop
  endfacet
  facet normal  0.000000e+000  1.000000e+000  -0.000000e+000
    outer loop
      vertex -4.500069e+001  2.700000e+001  4.500069e+001
      vertex -4.500069e+001  2.700000e+001  4.350138e+001
      vertex -4.650127e+001  2.700000e+001  4.650127e+001
    endloop
  endfacet
  facet normal  0.000000e+000  1.000000e+000  0.000000e+000
    outer loop
      vertex -4.650127e+001  2.700000e+001  4.650127e+001
      vertex -4.500069e+001  2.700000e+001  4.350138e+001
      vertex -4.500069e+001  2.700000e+001  7.105427e-015
    endloop
  endfacet
  facet normal  0.000000e+000  1.000000e+000  0.000000e+000
    outer loop
      vertex -4.650127e+001  2.700000e+001  4.650127e+001
      vertex -4.500069e+001  2.700000e+001  7.105427e-015
      vertex -4.650127e+001  2.700000e+001  0.000000e+000
    endloop
  endfacet
  facet normal -3.946345e-016 -9.999999e-001  4.083449e-017
    outer loop
      vertex  4.200000e+001  1.776357e-015 -1.421085e-014
      vertex  4.650127e+001  0.000000e+000  6.400001e-015
      vertex  4.200000e+001  3.491405e-015  4.200000e+001
    endloop
  endfacet
  facet normal -7.756489e-016 -1.000000e+000  0.000000e+000
    outer loop
      vertex  4.200000e+001  3.491405e-015  4.200000e+001
      vertex  4.650127e+001  0.000000e+000  6.400001e-015
      vertex  4.650127e+001  0.000000e+000  4.650127e+001
    endloop
  endfacet
  facet normal -1.000000e+000  0.000000e+000  -0.000000e+000
    outer loop
      vertex  4.200000e+001  1.776357e-015 -1.421085e-014
      vertex  4.200000e+001  3.491405e-015  4.200000e+001
      vertex  4.200000e+001  1.500000e+000  7.105427e-015
    endloop
  endfacet
  facet normal -1.000000e+000  0.000000e+000  0.000000e+000
    outer loop
      vertex  4.200000e+001  1.500000e+000  7.105427e-015
      vertex  4.200000e+001  3.491405e-015  4.200000e+001
      vertex  4.200000e+001  1.500000e+000  4.200000e+001
    endloop
  endfacet
  facet normal  9.986178e-001 -5.255892e-002  0.000000e+000
    outer loop
      vertex -4.550127e+001  1.748900e+001  4.350138e+001
      vertex -4.550127e+001  1.748900e+001  0.000000e+000
      vertex -4.500069e+001  2.700000e+001  4.350138e+001
    endloop
  endfacet
  facet normal  9.986178e-001 -5.255892e-002  0.000000e+000
    outer loop
      vertex -4.500069e+001  2.700000e+001  4.350138e+001
      vertex -4.550127e+001  1.748900e+001  0.000000e+000
      vertex -4.500069e+001  2.700000e+001  7.105427e-015
    endloop
  endfacet
  facet normal -1.000000e+000  0.000000e+000  0.000000e+000
    outer loop
      vertex -4.650127e+001  0.000000e+000 -1.209458e-014
      vertex -4.650127e+001  0.000000e+000  4.650127e+001
      vertex -4.650127e+001  2.700000e+001  0.000000e+000
    endloop
  endfacet
  facet normal -1.000000e+000  0.000000e+000  0.000000e+000
    outer loop
      vertex -4.650127e+001  2.700000e+001  0.000000e+000
      vertex -4.650127e+001  0.000000e+000  4.650127e+001
      vertex -4.650127e+001  2.700000e+001  4.650127e+001
    endloop
  endfacet
  facet normal  0.000000e+000  1.000000e+000  0.000000e+000
    outer loop
      vertex -4.395395e+001  1.500000e+000  0.000000e+000
      vertex -4.395395e+001  1.500000e+000  4.350138e+001
      vertex -4.200000e+001  1.500000e+000  0.000000e+000
    endloop
  endfacet
  facet normal  0.000000e+000  9.999999e-001  0.000000e+000
    outer loop
      vertex -4.200000e+001  1.500000e+000  0.000000e+000
      vertex -4.395395e+001  1.500000e+000  4.350138e+001
      vertex -4.350138e+001  1.500000e+000  4.350138e+001
    endloop
  endfacet
  facet normal  0.000000e+000  9.999999e-001  0.000000e+000
    outer loop
      vertex -4.200000e+001  1.500000e+000  0.000000e+000
      vertex -4.350138e+001  1.500000e+000  4.350138e+001
      vertex -4.200000e+001  1.500000e+000  4.200000e+001
    endloop
  endfacet
  facet normal  9.953500e-001  9.632413e-002  -0.000000e+000
    outer loop
      vertex -4.395395e+001  1.500000e+000  4.350138e+001
      vertex -4.395395e+001  1.500000e+000  0.000000e+000
      vertex -4.550127e+001  1.748900e+001  4.350138e+001
    endloop
  endfacet
  facet normal  9.953500e-001  9.632413e-002  0.000000e+000
    outer loop
      vertex -4.550127e+001  1.748900e+001  4.350138e+001
      vertex -4.395395e+001  1.500000e+000  0.000000e+000
      vertex -4.550127e+001  1.748900e+001  0.000000e+000
    endloop
  endfacet
  facet normal  3.946346e-016 -1.000000e+000  0.000000e+000
    outer loop
      vertex -4.650127e+001  0.000000e+000 -1.209458e-014
      vertex -4.200000e+001  1.776357e-015  2.131628e-014
      vertex -4.650127e+001  0.000000e+000  4.650127e+001
    endloop
  endfacet
  facet normal -2.721430e-017 -1.000000e+000 -4.083449e-017
    outer loop
      vertex -4.650127e+001  0.000000e+000  4.650127e+001
      vertex -4.200000e+001  1.776357e-015  2.131628e-014
      vertex -4.200000e+001  6.130818e-017  4.200000e+001
    endloop
  endfacet
  facet normal  1.000000e+000  0.000000e+000  -0.000000e+000
    outer loop
      vertex -4.200000e+001  6.130818e-017  4.200000e+001
      vertex -4.200000e+001  1.776357e-015  2.131628e-014
      vertex -4.200000e+001  1.500000e+000  4.200000e+001
    endloop
  endfacet
  facet normal  1.000000e+000  0.000000e+000  0.000000e+000
    outer loop
      vertex -4.200000e+001  1.500000e+000  4.200000e+001
      vertex -4.200000e+001  1.776357e-015  2.131628e-014
      vertex -4.200000e+001  1.500000e+000  0.000000e+000
    endloop
  endfacet
  facet normal  4.735121e-015  4.479473e-016 -1.000000e+000
    outer loop
      vertex -4.650127e+001  0.000000e+000 -1.209458e-014
      vertex -4.650127e+001  2.700000e+001  0.000000e+000
      vertex -4.500069e+001  2.700000e+001  7.105427e-015
    endloop
  endfacet
  facet normal -1.221012e-014  1.389714e-015 -1.000000e+000
    outer loop
      vertex -4.650127e+001  0.000000e+000 -1.209458e-014
      vertex -4.500069e+001  2.700000e+001  7.105427e-015
      vertex -4.550127e+001  1.748900e+001  0.000000e+000
    endloop
  endfacet
  facet normal  4.491980e-015  4.347074e-016 -1.000000e+000
    outer loop
      vertex -4.650127e+001  0.000000e+000 -1.209458e-014
      vertex -4.550127e+001  1.748900e+001  0.000000e+000
      vertex -4.395395e+001  1.500000e+000  0.000000e+000
    endloop
  endfacet
  facet normal  0.000000e+000  8.063051e-015 -1.000000e+000
    outer loop
      vertex -4.650127e+001  0.000000e+000 -1.209458e-014
      vertex -4.395395e+001  1.500000e+000  0.000000e+000
      vertex -4.200000e+001  1.500000e+000  0.000000e+000
    endloop
  endfacet
  facet normal  7.422540e-015 -1.421085e-014 -1.000000e+000
    outer loop
      vertex -4.650127e+001  0.000000e+000 -1.209458e-014
      vertex -4.200000e+001  1.500000e+000  0.000000e+000
      vertex -4.200000e+001  1.776357e-015  2.131628e-014
    endloop
  endfacet
  facet normal  4.735121e-015  2.492173e-016 -1.000000e+000
    outer loop
      vertex  4.550127e+001  1.748900e+001 -7.105427e-015
      vertex  4.500069e+001  2.700000e+001 -7.105427e-015
      vertex  4.650127e+001  2.700000e+001  0.000000e+000
    endloop
  endfacet
  facet normal  4.578898e-015  1.421085e-014 -1.000000e+000
    outer loop
      vertex  4.650127e+001  0.000000e+000  6.400001e-015
      vertex  4.200000e+001  1.776357e-015 -1.421085e-014
      vertex  4.200000e+001  1.500000e+000  7.105427e-015
    endloop
  endfacet
  facet normal -7.272889e-015 -2.135454e-014 -1.000000e+000
    outer loop
      vertex  4.650127e+001  0.000000e+000  6.400001e-015
      vertex  4.200000e+001  1.500000e+000  7.105427e-015
      vertex  4.395395e+001  1.500000e+000 -7.105427e-015
    endloop
  endfacet
  facet normal  5.015977e-015 -4.854167e-016 -1.000000e+000
    outer loop
      vertex  4.650127e+001  0.000000e+000  6.400001e-015
      vertex  4.395395e+001  1.500000e+000 -7.105427e-015
      vertex  4.550127e+001  1.748900e+001 -7.105427e-015
    endloop
  endfacet
  facet normal  9.359888e-015 -2.370371e-016 -1.000000e+000
    outer loop
      vertex  4.650127e+001  0.000000e+000  6.400001e-015
      vertex  4.550127e+001  1.748900e+001 -7.105427e-015
      vertex  4.650127e+001  2.700000e+001  0.000000e+000
    endloop
  endfacet
  facet normal  4.083449e-017 -1.000000e+000  2.721425e-017
    outer loop
      vertex -4.200000e+001  6.130818e-017  4.200000e+001
      vertex  4.200000e+001  3.491405e-015  4.200000e+001
      vertex -4.650127e+001  0.000000e+000  4.650127e+001
    endloop
  endfacet
  facet normal  0.000000e+000 -1.000000e+000 -7.756489e-016
    outer loop
      vertex -4.650127e+001  0.000000e+000  4.650127e+001
      vertex  4.200000e+001  3.491405e-015  4.200000e+001
      vertex  4.650127e+001  0.000000e+000  4.650127e+001
    endloop
  endfacet
  facet normal  0.000000e+000  1.000000e+000  0.000000e+000
    outer loop
      vertex -4.650127e+001  2.700000e+001  4.650127e+001
      vertex  4.650127e+001  2.700000e+001  4.650127e+001
      vertex  4.500069e+001  2.700000e+001  4.500069e+001
    endloop
  endfacet
  facet normal  0.000000e+000  1.000000e+000  0.000000e+000
    outer loop
      vertex -4.650127e+001  2.700000e+001  4.650127e+001
      vertex  4.500069e+001  2.700000e+001  4.500069e+001
      vertex  4.350138e+001  2.700000e+001  4.500069e+001
    endloop
  endfacet
  facet normal  0.000000e+000  1.000000e+000  0.000000e+000
    outer loop
      vertex -4.650127e+001  2.700000e+001  4.650127e+001
      vertex  4.350138e+001  2.700000e+001  4.500069e+001
      vertex -4.350138e+001  2.700000e+001  4.500069e+001
    endloop
  endfacet
  facet normal  0.000000e+000  1.000000e+000  0.000000e+000
    outer loop
      vertex -4.650127e+001  2.700000e+001  4.650127e+001
      vertex -4.350138e+001  2.700000e+001  4.500069e+001
      vertex -4.500069e+001  2.700000e+001  4.500069e+001
    endloop
  endfacet
  facet normal -9.986178e-001 -5.255891e-002  0.000000e+000
    outer loop
      vertex  4.500069e+001  2.700000e+001  4.500069e+001
      vertex  4.500069e+001  2.700000e+001  4.350138e+001
      vertex  4.550127e+001  1.748900e+001  4.550127e+001
    endloop
  endfacet
  facet normal -9.986178e-001 -5.255891e-002  -0.000000e+000
    outer loop
      vertex  4.550127e+001  1.748900e+001  4.550127e+001
      vertex  4.500069e+001  2.700000e+001  4.350138e+001
      vertex  4.550127e+001  1.748900e+001  4.350138e+001
    endloop
  endfacet
  facet normal  0.000000e+000  0.000000e+000 -1.000000e+000
    outer loop
      vertex  4.200000e+001  3.491405e-015  4.200000e+001
      vertex -4.200000e+001  6.130818e-017  4.200000e+001
      vertex  4.200000e+001  1.500000e+000  4.200000e+001
    endloop
  endfacet
  facet normal  -0.000000e+000  0.000000e+000 -1.000000e+000
    outer loop
      vertex  4.200000e+001  1.500000e+000  4.200000e+001
      vertex -4.200000e+001  6.130818e-017  4.200000e+001
      vertex -4.200000e+001  1.500000e+000  4.200000e+001
    endloop
  endfacet
  facet normal  0.000000e+000 -5.255891e-002 -9.986178e-001
    outer loop
      vertex  4.550127e+001  1.748900e+001  4.550127e+001
      vertex  4.350138e+001  1.748900e+001  4.550127e+001
      vertex  4.500069e+001  2.700000e+001  4.500069e+001
    endloop
  endfacet
  facet normal  -0.000000e+000 -5.255891e-002 -9.986178e-001
    outer loop
      vertex  4.500069e+001  2.700000e+001  4.500069e+001
      vertex  4.350138e+001  1.748900e+001  4.550127e+001
      vertex  4.350138e+001  2.700000e+001  4.500069e+001
    endloop
  endfacet
  facet normal  0.000000e+000 -5.255892e-002 -9.986178e-001
    outer loop
      vertex  4.350138e+001  1.748900e+001  4.550127e+001
      vertex -4.350138e+001  1.748900e+001  4.550127e+001
      vertex  4.350138e+001  2.700000e+001  4.500069e+001
    endloop
  endfacet
  facet normal  -0.000000e+000 -5.255892e-002 -9.986178e-001
    outer loop
      vertex  4.350138e+001  2.700000e+001  4.500069e+001
      vertex -4.350138e+001  1.748900e+001  4.550127e+001
      vertex -4.350138e+001  2.700000e+001  4.500069e+001
    endloop
  endfacet
  facet normal  -0.000000e+000 -5.255891e-002 -9.986178e-001
    outer loop
      vertex -4.500069e+001  2.700000e+001  4.500069e+001
      vertex -4.350138e+001  2.700000e+001  4.500069e+001
      vertex -4.550127e+001  1.748900e+001  4.550127e+001
    endloop
  endfacet
  facet normal  0.000000e+000 -5.255891e-002 -9.986178e-001
    outer loop
      vertex -4.550127e+001  1.748900e+001  4.550127e+001
      vertex -4.350138e+001  2.700000e+001  4.500069e+001
      vertex -4.350138e+001  1.748900e+001  4.550127e+001
    endloop
  endfacet
  facet normal  9.986178e-001 -5.255891e-002  0.000000e+000
    outer loop
      vertex -4.550127e+001  1.748900e+001  4.550127e+001
      vertex -4.550127e+001  1.748900e+001  4.350138e+001
      vertex -4.500069e+001  2.700000e+001  4.500069e+001
    endloop
  endfacet
  facet normal  9.986178e-001 -5.255891e-002  0.000000e+000
    outer loop
      vertex -4.500069e+001  2.700000e+001  4.500069e+001
      vertex -4.550127e+001  1.748900e+001  4.350138e+001
      vertex -4.500069e+001  2.700000e+001  4.350138e+001
    endloop
  endfacet
  facet normal  0.000000e+000  0.000000e+000  1.000000e+000
    outer loop
      vertex -4.650127e+001  0.000000e+000  4.650127e+001
      vertex  4.650127e+001  0.000000e+000  4.650127e+001
      vertex -4.650127e+001  2.700000e+001  4.650127e+001
    endloop
  endfacet
  facet normal  -0.000000e+000  0.000000e+000  1.000000e+000
    outer loop
      vertex -4.650127e+001  2.700000e+001  4.650127e+001
      vertex  4.650127e+001  0.000000e+000  4.650127e+001
      vertex  4.650127e+001  2.700000e+001  4.650127e+001
    endloop
  endfacet
  facet normal  0.000000e+000  9.632412e-002 -9.953501e-001
    outer loop
      vertex -4.350138e+001  1.748900e+001  4.550127e+001
      vertex -4.350138e+001  1.500000e+000  4.395395e+001
      vertex -4.550127e+001  1.748900e+001  4.550127e+001
    endloop
  endfacet
  facet normal  0.000000e+000  9.632413e-002 -9.953501e-001
    outer loop
      vertex -4.550127e+001  1.748900e+001  4.550127e+001
      vertex -4.350138e+001  1.500000e+000  4.395395e+001
      vertex -4.395395e+001  1.500000e+000  4.395395e+001
    endloop
  endfacet
  facet normal  0.000000e+000  9.632413e-002 -9.953501e-001
    outer loop
      vertex  4.395395e+001  1.500000e+000  4.395395e+001
      vertex  4.350138e+001  1.500000e+000  4.395395e+001
      vertex  4.550127e+001  1.748900e+001  4.550127e+001
    endloop
  endfacet
  facet normal  0.000000e+000  9.632412e-002 -9.953501e-001
    outer loop
      vertex  4.550127e+001  1.748900e+001  4.550127e+001
      vertex  4.350138e+001  1.500000e+000  4.395395e+001
      vertex  4.350138e+001  1.748900e+001  4.550127e+001
    endloop
  endfacet
  facet normal  0.000000e+000  1.000000e+000  0.000000e+000
    outer loop
      vertex -4.395395e+001  1.500000e+000  4.395395e+001
      vertex -4.350138e+001  1.500000e+000  4.395395e+001
      vertex -4.350138e+001  1.500000e+000  4.350138e+001
    endloop
  endfacet
  facet normal  -0.000000e+000  1.000000e+000  0.000000e+000
    outer loop
      vertex  4.350138e+001  1.500000e+000  4.350138e+001
      vertex  4.350138e+001  1.500000e+000  4.395395e+001
      vertex  4.395395e+001  1.500000e+000  4.395395e+001
    endloop
  endfacet
  facet normal  0.000000e+000  1.000000e+000  0.000000e+000
    outer loop
      vertex  4.200000e+001  1.500000e+000  4.200000e+001
      vertex  4.350138e+001  1.500000e+000  4.395395e+001
      vertex  4.350138e+001  1.500000e+000  4.350138e+001
    endloop
  endfacet
  facet normal  0.000000e+000  1.000000e+000  -0.000000e+000
    outer loop
      vertex  4.350138e+001  1.500000e+000  4.395395e+001
      vertex  4.200000e+001  1.500000e+000  4.200000e+001
      vertex -4.350138e+001  1.500000e+000  4.395395e+001
    endloop
  endfacet
  facet normal  0.000000e+000  1.000000e+000  0.000000e+000
    outer loop
      vertex -4.350138e+001  1.500000e+000  4.395395e+001
      vertex  4.200000e+001  1.500000e+000  4.200000e+001
      vertex -4.200000e+001  1.500000e+000  4.200000e+001
    endloop
  endfacet
  facet normal  0.000000e+000  1.000000e+000  0.000000e+000
    outer loop
      vertex -4.350138e+001  1.500000e+000  4.395395e+001
      vertex -4.200000e+001  1.500000e+000  4.200000e+001
      vertex -4.350138e+001  1.500000e+000  4.350138e+001
    endloop
  endfacet
  facet normal  9.953501e-001  9.632413e-002  -0.000000e+000
    outer loop
      vertex -4.395395e+001  1.500000e+000  4.395395e+001
      vertex -4.395395e+001  1.500000e+000  4.350138e+001
      vertex -4.550127e+001  1.748900e+001  4.550127e+001
    endloop
  endfacet
  facet normal  9.953501e-001  9.632412e-002  0.000000e+000
    outer loop
      vertex -4.550127e+001  1.748900e+001  4.550127e+001
      vertex -4.395395e+001  1.500000e+000  4.350138e+001
      vertex -4.550127e+001  1.748900e+001  4.350138e+001
    endloop
  endfacet
  facet normal  0.000000e+000  1.000000e+000  0.000000e+000
    outer loop
      vertex -4.350138e+001  1.500000e+000  4.350138e+001
      vertex -4.395395e+001  1.500000e+000  4.350138e+001
      vertex -4.395395e+001  1.500000e+000  4.395395e+001
    endloop
  endfacet
  facet normal -9.953501e-001  9.632412e-002  0.000000e+000
    outer loop
      vertex  4.550127e+001  1.748900e+001  4.350138e+001
      vertex  4.395395e+001  1.500000e+000  4.350138e+001
      vertex  4.550127e+001  1.748900e+001  4.550127e+001
    endloop
  endfacet
  facet normal -9.953501e-001  9.632413e-002  0.000000e+000
    outer loop
      vertex  4.550127e+001  1.748900e+001  4.550127e+001
      vertex  4.395395e+001  1.500000e+000  4.350138e+001
      vertex  4.395395e+001  1.500000e+000  4.395395e+001
    endloop
  endfacet
  facet normal  0.000000e+000  1.000000e+000  -0.000000e+000
    outer loop
      vertex  4.395395e+001  1.500000e+000  4.395395e+001
      vertex  4.395395e+001  1.500000e+000  4.350138e+001
      vertex  4.350138e+001  1.500000e+000  4.350138e+001
    endloop
  endfacet
  facet normal  0.000000e+000  9.632413e-002 -9.953500e-001
    outer loop
      vertex  4.350138e+001  1.500000e+000  4.395395e+001
      vertex -4.350138e+001  1.500000e+000  4.395395e+001
      vertex  4.350138e+001  1.748900e+001  4.550127e+001
    endloop
  endfacet
  facet normal  0.000000e+000  9.632413e-002 -9.953500e-001
    outer loop
      vertex  4.350138e+001  1.748900e+001  4.550127e+001
      vertex -4.350138e+001  1.500000e+000  4.395395e+001
      vertex -4.350138e+001  1.748900e+001  4.550127e+001
    endloop
  endfacet
endsolid CATIA STL
